<mxfile host="app.diagrams.net" modified="2024-07-04T04:41:25.229Z" agent="Mozilla/5.0 (Windows NT 10.0; Win64; x64) AppleWebKit/537.36 (KHTML, like Gecko) Chrome/126.0.0.0 Safari/537.36" etag="k3jcPLfCO5rLSWWnsSIU" version="24.6.4" type="github">
  <diagram name="Page-1" id="eLwS3x9kB15g1fL843Lp">
    <mxGraphModel dx="918" dy="362" grid="1" gridSize="10" guides="1" tooltips="1" connect="1" arrows="1" fold="1" page="1" pageScale="1" pageWidth="850" pageHeight="1100" math="0" shadow="0">
      <root>
        <mxCell id="0" />
        <mxCell id="1" parent="0" />
        <mxCell id="IhHLbHTDTKvaHB8685EH-5" value="" style="edgeStyle=orthogonalEdgeStyle;rounded=0;orthogonalLoop=1;jettySize=auto;html=1;" parent="1" source="IhHLbHTDTKvaHB8685EH-1" target="IhHLbHTDTKvaHB8685EH-4" edge="1">
          <mxGeometry relative="1" as="geometry" />
        </mxCell>
        <mxCell id="IhHLbHTDTKvaHB8685EH-10" style="edgeStyle=orthogonalEdgeStyle;rounded=0;orthogonalLoop=1;jettySize=auto;html=1;entryX=0;entryY=0.5;entryDx=0;entryDy=0;" parent="1" source="IhHLbHTDTKvaHB8685EH-1" target="IhHLbHTDTKvaHB8685EH-6" edge="1">
          <mxGeometry relative="1" as="geometry" />
        </mxCell>
        <mxCell id="IhHLbHTDTKvaHB8685EH-1" value="Camunda Integration Layer Method" style="rounded=1;whiteSpace=wrap;html=1;" parent="1" vertex="1">
          <mxGeometry x="170" y="140" width="120" height="60" as="geometry" />
        </mxCell>
        <mxCell id="IhHLbHTDTKvaHB8685EH-7" value="" style="edgeStyle=orthogonalEdgeStyle;rounded=0;orthogonalLoop=1;jettySize=auto;html=1;" parent="1" source="IhHLbHTDTKvaHB8685EH-2" target="IhHLbHTDTKvaHB8685EH-6" edge="1">
          <mxGeometry relative="1" as="geometry" />
        </mxCell>
        <mxCell id="IhHLbHTDTKvaHB8685EH-2" value="Core App" style="ellipse;whiteSpace=wrap;html=1;rounded=1;" parent="1" vertex="1">
          <mxGeometry x="570" y="120" width="80" height="80" as="geometry" />
        </mxCell>
        <mxCell id="IhHLbHTDTKvaHB8685EH-4" value="Camunda Platform API" style="shape=parallelogram;perimeter=parallelogramPerimeter;whiteSpace=wrap;html=1;fixedSize=1;rounded=1;" parent="1" vertex="1">
          <mxGeometry x="160" y="280" width="140" height="80" as="geometry" />
        </mxCell>
        <mxCell id="IhHLbHTDTKvaHB8685EH-9" value="" style="edgeStyle=orthogonalEdgeStyle;rounded=0;orthogonalLoop=1;jettySize=auto;html=1;" parent="1" source="IhHLbHTDTKvaHB8685EH-6" target="IhHLbHTDTKvaHB8685EH-8" edge="1">
          <mxGeometry relative="1" as="geometry" />
        </mxCell>
        <mxCell id="IhHLbHTDTKvaHB8685EH-6" value="COBBPMIntegration&lt;div&gt;Services API&lt;/div&gt;" style="rounded=1;whiteSpace=wrap;html=1;" parent="1" vertex="1">
          <mxGeometry x="550" y="290" width="120" height="60" as="geometry" />
        </mxCell>
        <mxCell id="IhHLbHTDTKvaHB8685EH-8" value="All Backend APis" style="rhombus;whiteSpace=wrap;html=1;rounded=1;" parent="1" vertex="1">
          <mxGeometry x="570" y="420" width="80" height="80" as="geometry" />
        </mxCell>
      </root>
    </mxGraphModel>
  </diagram>
</mxfile>
